<?xml version="1.0" standalone="no"?><svg xmlns="http://www.w3.org/2000/svg" viewBox="0 0 1440 320"><path fill="#0e0d0b" fill-opacity="1" d="M0,224L30,213.3C60,203,120,181,180,144C240,107,300,53,360,74.7C420,96,480,192,540,192C600,192,660,96,720,96C780,96,840,192,900,218.7C960,245,1020,203,1080,197.3C1140,192,1200,224,1260,229.3C1320,235,1380,213,1410,202.7L1440,192L1440,0L1410,0C1380,0,1320,0,1260,0C1200,0,1140,0,1080,0C1020,0,960,0,900,0C840,0,780,0,720,0C660,0,600,0,540,0C480,0,420,0,360,0C300,0,240,0,180,0C120,0,60,0,30,0L0,0Z"></path></svg>