<?xml version="1.0" standalone="no"?><svg xmlns="http://www.w3.org/2000/svg" viewBox="0 0 1440 320"><path fill="#0e0d0b" fill-opacity="1" d="M0,224L30,213.3C60,203,120,181,180,144C240,107,300,53,360,74.7C420,96,480,192,540,192C600,192,660,96,720,96C780,96,840,192,900,218.7C960,245,1020,203,1080,197.3C1140,192,1200,224,1260,229.3C1320,235,1380,213,1410,202.7L1440,192L1440,320L1410,320C1380,320,1320,320,1260,320C1200,320,1140,320,1080,320C1020,320,960,320,900,320C840,320,780,320,720,320C660,320,600,320,540,320C480,320,420,320,360,320C300,320,240,320,180,320C120,320,60,320,30,320L0,320Z"></path></svg>